<svg width="25" height="25" viewBox="0 0 25 25" fill="none" xmlns="http://www.w3.org/2000/svg">
<path d="M11.578 2.5C10.9813 2.5 10.409 2.73705 9.98701 3.15901C9.56506 3.58097 9.328 4.15326 9.328 4.75V6.628C9.448 6.70933 9.562 6.80333 9.67 6.91L10.828 8.069V4.75C10.828 4.55109 10.907 4.36032 11.0477 4.21967C11.1883 4.07902 11.3791 4 11.578 4H17.578C17.7769 4 17.9677 4.07902 18.1083 4.21967C18.249 4.36032 18.328 4.55109 18.328 4.75V20.25C18.328 20.4489 18.249 20.6397 18.1083 20.7803C17.9677 20.921 17.7769 21 17.578 21H11.578C11.3791 21 11.1883 20.921 11.0477 20.7803C10.907 20.6397 10.828 20.4489 10.828 20.25V16.931L9.67 18.091C9.56334 18.1977 9.44934 18.291 9.328 18.371V20.25C9.328 20.8467 9.56506 21.419 9.98701 21.841C10.409 22.2629 10.9813 22.5 11.578 22.5H17.578C18.1747 22.5 18.747 22.2629 19.169 21.841C19.591 21.419 19.828 20.8467 19.828 20.25V4.75C19.828 4.15326 19.591 3.58097 19.169 3.15901C18.747 2.73705 18.1747 2.5 17.578 2.5H11.578Z" fill="black"/>
<path d="M3.578 12.5C3.578 12.726 3.678 12.928 3.836 13.066L7.797 17.03C7.86615 17.1017 7.94889 17.1589 8.04037 17.1982C8.13185 17.2376 8.23026 17.2583 8.32984 17.2592C8.42943 17.2601 8.52819 17.2412 8.62038 17.2035C8.71257 17.1659 8.79634 17.1102 8.86679 17.0398C8.93724 16.9694 8.99297 16.8857 9.03073 16.7936C9.06848 16.7014 9.0875 16.6027 9.08669 16.5031C9.08587 16.4035 9.06522 16.3051 9.02596 16.2136C8.9867 16.122 8.9296 16.0392 8.858 15.97L6.14 13.25H12.078C12.2769 13.25 12.4677 13.171 12.6083 13.0304C12.749 12.8897 12.828 12.6989 12.828 12.5C12.828 12.3011 12.749 12.1104 12.6083 11.9697C12.4677 11.829 12.2769 11.75 12.078 11.75H6.14L8.858 9.03003C8.99048 8.88785 9.06261 8.69981 9.05918 8.50551C9.05575 8.31121 8.97704 8.12582 8.83962 7.98841C8.70221 7.85099 8.51683 7.77228 8.32253 7.76885C8.12822 7.76543 7.94018 7.83755 7.798 7.97003L3.834 11.936C3.75363 12.0064 3.68921 12.0931 3.64506 12.1904C3.60091 12.2876 3.57805 12.3932 3.578 12.5Z" fill="black"/>
</svg>
