<svg width="22" height="23" viewBox="0 0 22 23" fill="none" xmlns="http://www.w3.org/2000/svg">
<path d="M9 2C10.8565 2 12.637 2.7375 13.9497 4.05025C15.2625 5.36301 16 7.14348 16 9V10H18V9C18 6.61305 17.0518 4.32387 15.364 2.63604C13.6761 0.948212 11.3869 0 9 0C6.61305 0 4.32387 0.948212 2.63604 2.63604C0.948211 4.32387 0 6.61305 0 9C0 12.637 2.218 15.876 4.262 18.112C5.41988 19.3723 6.69086 20.5238 8.059 21.552C8.449 21.844 8.856 22.114 9.257 22.391L10.391 20.743C10.01 20.481 9.624 20.226 9.254 19.949C7.9873 18.9961 6.8104 17.9293 5.738 16.762C3.782 14.624 2 11.862 2 9C2 7.14348 2.7375 5.36301 4.05025 4.05025C5.36301 2.7375 7.14348 2 9 2ZM9 7C8.46957 7 7.96086 7.21071 7.58579 7.58579C7.21071 7.96086 7 8.46957 7 9C7 9.53043 7.21071 10.0391 7.58579 10.4142C7.96086 10.7893 8.46957 11 9 11C9.53043 11 10.0391 10.7893 10.4142 10.4142C10.7893 10.0391 11 9.53043 11 9C11 8.46957 10.7893 7.96086 10.4142 7.58579C10.0391 7.21071 9.53043 7 9 7ZM5 9C5 7.93913 5.42143 6.92172 6.17157 6.17157C6.92172 5.42143 7.93913 5 9 5C10.0609 5 11.0783 5.42143 11.8284 6.17157C12.5786 6.92172 13 7.93913 13 9C13 10.0609 12.5786 11.0783 11.8284 11.8284C11.0783 12.5786 10.0609 13 9 13C7.93913 13 6.92172 12.5786 6.17157 11.8284C5.42143 11.0783 5 10.0609 5 9Z" fill="black"/>
<path d="M17 11.75V13.126C17.715 13.31 18.352 13.686 18.854 14.198L20.047 13.509L21.047 15.241L19.855 15.929C20.0497 16.6297 20.0497 17.3703 19.855 18.071L21.047 18.759L20.047 20.491L18.854 19.802C18.3449 20.3212 17.704 20.6918 17 20.874V22.25H15V20.874C14.2961 20.6918 13.6551 20.3212 13.146 19.802L11.953 20.491L10.953 18.759L12.145 18.071C11.9503 17.3703 11.9503 16.6297 12.145 15.929L10.953 15.241L11.953 13.509L13.146 14.197C13.6553 13.6785 14.2963 13.3086 15 13.127V11.75H17ZM14.249 16.033C14.0852 16.329 13.9992 16.6617 13.999 17C13.999 17.35 14.09 17.68 14.249 17.967L14.285 18.03C14.4627 18.3262 14.714 18.5713 15.0146 18.7414C15.3151 18.9116 15.6546 19.001 16 19.001C16.3454 19.001 16.6849 18.9116 16.9854 18.7414C17.286 18.5713 17.5373 18.3262 17.715 18.03L17.751 17.967C17.9144 17.6709 18.0001 17.3382 18 17C18 16.65 17.91 16.32 17.751 16.033L17.715 15.97C17.5373 15.6738 17.286 15.4287 16.9854 15.2586C16.6849 15.0884 16.3454 14.999 16 14.999C15.6546 14.999 15.3151 15.0884 15.0146 15.2586C14.714 15.4287 14.4627 15.6738 14.285 15.97L14.249 16.033Z" fill="black"/>
</svg>
