<svg width="14" height="15" viewBox="0 0 14 15" fill="none" xmlns="http://www.w3.org/2000/svg">
<path d="M8.00024 6H11.5002V7H8.00024V6ZM8.00024 3.5H13.5002V4.5H8.00024V3.5ZM8.00024 1H13.5002V2H8.00024V1ZM4.00024 14.5H2.00024C1.73527 14.4992 1.48138 14.3936 1.29401 14.2062C1.10665 14.0189 1.00103 13.765 1.00024 13.5V10C0.73527 9.99921 0.481375 9.8936 0.29401 9.70623C0.106645 9.51887 0.00103408 9.26497 0.000242716 9V6C-0.00335088 5.80203 0.0329926 5.60536 0.107102 5.42175C0.181212 5.23814 0.291568 5.07135 0.431578 4.93134C0.571588 4.79133 0.738381 4.68097 0.921993 4.60686C1.10561 4.53275 1.30227 4.49641 1.50024 4.5H4.50024C4.69821 4.49641 4.89488 4.53275 5.07849 4.60686C5.2621 4.68097 5.4289 4.79133 5.56891 4.93134C5.70892 5.07135 5.81927 5.23814 5.89338 5.42175C5.96749 5.60536 6.00384 5.80203 6.00024 6V9C5.99945 9.26497 5.89384 9.51887 5.70648 9.70623C5.51911 9.8936 5.26522 9.99921 5.00024 10V13.5C4.99945 13.765 4.89384 14.0189 4.70648 14.2062C4.51911 14.3936 4.26522 14.4992 4.00024 14.5ZM1.50024 5.5C1.43354 5.49599 1.36674 5.50618 1.30426 5.52989C1.24178 5.55359 1.18504 5.59029 1.13778 5.63754C1.09053 5.6848 1.05384 5.74154 1.03013 5.80402C1.00642 5.8665 0.996233 5.93329 1.00024 6V9H2.00024V13.5H4.00024V9H5.00024V6C5.00425 5.93329 4.99407 5.8665 4.97036 5.80402C4.94665 5.74154 4.90996 5.6848 4.8627 5.63754C4.81545 5.59029 4.75871 5.55359 4.69623 5.52989C4.63375 5.50618 4.56695 5.49599 4.50024 5.5H1.50024ZM3.00024 4C2.60468 4 2.218 3.8827 1.8891 3.66294C1.5602 3.44318 1.30386 3.13082 1.15248 2.76537C1.00111 2.39992 0.961502 1.99778 1.03867 1.60982C1.11584 1.22186 1.30632 0.865492 1.58603 0.585787C1.86573 0.306082 2.2221 0.115601 2.61006 0.0384303C2.99802 -0.0387401 3.40016 0.000866562 3.76561 0.152242C4.13106 0.303617 4.44342 0.559962 4.66318 0.88886C4.88294 1.21776 5.00024 1.60444 5.00024 2C4.99892 2.53003 4.78779 3.03797 4.413 3.41276C4.03821 3.78754 3.53027 3.99868 3.00024 4ZM3.00024 1C2.80246 1 2.60912 1.05865 2.44467 1.16853C2.28022 1.27841 2.15205 1.43459 2.07636 1.61732C2.00068 1.80004 1.98087 2.00111 2.01946 2.19509C2.05804 2.38907 2.15328 2.56726 2.29314 2.70711C2.43299 2.84696 2.61117 2.9422 2.80515 2.98079C2.99913 3.01937 3.2002 2.99957 3.38293 2.92388C3.56565 2.84819 3.72183 2.72002 3.83171 2.55557C3.94159 2.39112 4.00024 2.19778 4.00024 2C3.99945 1.73503 3.89384 1.48113 3.70648 1.29377C3.51911 1.1064 3.26522 1.00079 3.00024 1Z" fill="black"/>
</svg>
